<svg width="465" height="149" viewBox="0 0 465 149" fill="none" xmlns="http://www.w3.org/2000/svg">
<path fill-rule="evenodd" clip-rule="evenodd" d="M77.9121 0H392.449C432.344 0 464.994 31.7914 464.994 70.6502C464.994 109.509 432.349 141.3 392.455 141.3H77.9121C38.018 141.3 5.37943 109.509 5.37943 70.6502C5.37943 31.7914 38.018 0 77.9121 0Z" fill="white"/>
<path fill-rule="evenodd" clip-rule="evenodd" d="M358.254 81.5161L361.213 75.7515C361.764 74.7716 362.273 73.9011 362.823 73.0076C363.373 72.1141 364.326 71.065 364.687 70.3675C363.504 69.4797 362.592 69.6872 359.823 67.3123C359.473 69.497 359.367 72.1545 359.13 74.4084C358.894 76.6623 358.314 79.4812 358.254 81.5161Z" fill="white"/>
<path fill-rule="evenodd" clip-rule="evenodd" d="M393.325 66.0329V65.8369C391.656 66.9437 389.461 68.5924 387.23 69.434C387.283 72.518 387.957 69.9009 387.17 75.3657C387.608 73.6018 388.946 71.5669 389.875 70.316C390.49 69.4628 392.656 66.5863 393.325 66.0329Z" fill="white"/>
<path fill-rule="evenodd" clip-rule="evenodd" d="M239.868 69.3014C240.46 69.5262 242.567 68.9786 243.342 68.8114C244.473 68.5635 245.875 68.3214 246.544 67.6124C245.881 67.0647 241.881 66.69 239.868 69.3014Z" fill="white"/>
<path fill-rule="evenodd" clip-rule="evenodd" d="M369.955 36.5128L371.955 36.0056C371.748 35.3196 370.446 34.8526 369.44 34.3338C368.736 33.9591 367.416 33.2213 367.31 32.5238C368.079 32.9273 368.931 33.2847 369.677 33.6767C370.444 34.1307 371.234 34.5463 372.044 34.9218L372.086 33.4115C371.695 33.1579 370.494 30.5292 368.014 29.0132C365.92 27.8438 363.532 27.2669 361.119 27.3472C361.119 29.5089 362.433 32.3624 363.487 33.8438C364.848 35.7404 367.529 36.6973 369.955 36.5128Z" fill="#00A64F"/>
<path fill-rule="evenodd" clip-rule="evenodd" d="M369.481 20.9081C369.54 21.058 369.315 21.3981 370.357 21.2136C371.208 21.0221 371.947 20.5128 372.416 19.7955L371.86 19.6399C371.381 19.6865 370.916 19.8256 370.493 20.0492C369.919 20.3605 369.866 20.666 369.481 20.9081Z" fill="#00A64F"/>
<path fill-rule="evenodd" clip-rule="evenodd" d="M204.537 75.6426C203.128 75.9828 203.454 75.7868 202.761 77.1011C201.897 78.7497 200.134 82.2142 197.542 81.8453C196.95 80.4099 199.27 76.3805 199.879 75.4005C200.755 73.9767 202.661 70.9618 204.643 71.0714C205.152 71.8899 205.419 71.936 205.235 73.2561C205.056 74.0651 204.825 74.8622 204.543 75.6426H204.537ZM204.537 78.7267C208.289 78.3808 212.076 78.6633 215.858 78.6748C219.095 78.6748 218.646 77.1529 221.031 75.291C221.599 74.9457 222.065 74.4606 222.38 73.8845L207.721 73.8211C207.413 72.0052 208.212 69.4342 206.857 67.8951C205.501 66.356 202.998 67.555 201.755 68.4716C199.281 70.2759 197.228 73.0428 195.642 76.4209C194.559 78.7267 191.612 86.5491 197.11 85.3674C200.453 84.6526 202.921 81.315 204.537 78.7267Z" fill="white"/>
<path fill-rule="evenodd" clip-rule="evenodd" d="M135.454 82.2886H125.719C125.405 84.9172 127.784 86.2603 130.376 85.6724C132.087 85.2861 135.034 83.5395 135.454 82.2886Z" fill="white"/>
<path fill-rule="evenodd" clip-rule="evenodd" d="M130.791 70.2928H140.473C140.727 67.6872 138.39 66.3499 135.845 66.9436C134.2 67.3356 131.211 69.0362 130.791 70.2928Z" fill="white"/>
<path fill-rule="evenodd" clip-rule="evenodd" d="M232.174 86.3527C234.618 86.6178 240.004 84.802 240.827 82.1619C238.984 82.2948 237.165 82.6392 235.406 83.1879C234.623 83.381 233.909 83.7774 233.34 84.3348C232.771 84.8921 232.368 85.5896 232.174 86.3527Z" fill="white"/>
<path fill-rule="evenodd" clip-rule="evenodd" d="M407.694 87.2922C409.594 87.0905 413.151 81.7237 413.518 78.9683C411.985 79.66 408.28 84.8769 407.694 87.2922Z" fill="white"/>
<path fill-rule="evenodd" clip-rule="evenodd" d="M246.762 77.1067C246.591 78.6459 245.389 81.4244 244.697 82.6464C243.822 84.2658 242.584 85.6725 241.075 86.7623C236.287 90.3536 224.262 91.7371 229.902 83.3843C232.393 79.695 236.554 79.6892 240.945 78.8534C242.981 78.4672 246.597 77.124 246.762 77.124V77.1067ZM225.345 69.4975H235.66C236.346 67.9642 237.48 66.6612 238.921 65.7506C242.081 63.6523 247.39 63.3122 249.668 65.6411C251.29 67.2955 249.55 69.7108 248.419 70.4256C243.561 73.4866 231.553 72.5931 225.481 76.0115C221.545 78.2308 213.094 87.1428 218.379 93.7662C221.303 97.4267 230.659 97.029 235.772 95.3457C237.317 94.8327 239.69 93.5068 241.063 93.2705L240.199 95.9856L251.444 95.9107C252.479 93.9968 256.995 81.0266 258.285 77.6774C260.362 72.2818 264.694 63.1681 259.356 58.8331C254.74 55.0862 244.466 55.2649 238.305 57.3805C235.339 58.3584 232.6 59.8961 230.245 61.9056C229.333 62.7473 225.498 67.5837 225.345 69.4975Z" fill="#FFCD03"/>
<path fill-rule="evenodd" clip-rule="evenodd" d="M126.086 72.5755C126.163 70.1429 131.892 65.5428 135.407 64.436C139.266 63.2139 142.722 64.8395 143.379 68.7363C143.538 69.7278 143.627 71.8319 143.213 72.6274L126.086 72.5755ZM149.303 84.3755C146.527 84.2487 141.479 83.9605 138.845 84.3755C137.739 84.5427 137.188 85.4708 135.821 86.5545C134.779 87.3768 133.592 88.0078 132.318 88.4165C129.151 89.5002 126.05 88.8315 124.157 87.0618C123.106 86.0804 122.428 84.7807 122.235 83.3753C122.041 81.9699 122.343 80.5422 123.091 79.3258L151.433 79.2393C152.285 78.121 153.706 73.642 154.09 71.9529C156.339 62.1532 152.907 55.7661 140.952 55.8872C130.075 55.9967 120.091 61.8247 115.291 70.875C112.865 75.4405 110.935 80.5652 111.089 86.6986C111.397 98.6773 128.879 98.7465 138.443 93.9908C140.65 92.8829 142.718 91.5288 144.604 89.9556C145.923 88.8546 148.616 86.3816 149.303 84.3755Z" fill="#FFCD03"/>
<path fill-rule="evenodd" clip-rule="evenodd" d="M216.107 81.8101L206.585 81.7467C206.212 81.8389 205.537 83.3954 204.596 84.3062C202.229 86.612 198.844 89.0965 194.95 88.497C188.671 87.5401 190.517 80.7033 192.322 76.2416C198.317 61.4152 208.78 63.2771 210.361 66.8569C210.87 68.0098 210.633 69.8717 211.089 70.7191L222.043 70.846C222.83 67.5659 223.327 66.4246 221.978 63.035C221.171 60.8669 219.594 59.0514 217.533 57.9161C209.621 53.5408 197.015 56.1867 190.482 62.7641L188.114 65.1852C178.71 75.5613 171.544 97.5069 193.032 97.0919C198.329 96.9881 204.306 94.936 207.768 92.5379C209.663 91.2554 211.347 89.7005 212.763 87.9263C214.134 86.0303 215.257 83.9758 216.107 81.8101Z" fill="#FFCD03"/>
<path fill-rule="evenodd" clip-rule="evenodd" d="M173.615 60.3086C173.473 60.6084 173.674 60.4412 173.295 60.7698C173.174 60.8585 173.043 60.9339 172.904 60.9946L172.745 60.9427L172.455 61.2713C172.508 60.5449 172.455 61.0868 172.644 60.8793L173.952 56.9363L163.761 56.8729C163.116 57.0632 156.458 75.3194 156.067 76.2648C155.612 77.4177 148.966 94.8958 148.859 95.8643L160.103 95.9104C161.494 93.1261 166.318 79.7063 167.507 76.5415C168.963 72.6908 170.283 70.483 172.975 68.5231C176.278 66.1308 179.485 66.3614 184.22 66.125C184.741 65.3583 188.256 56.8326 188.28 55.9794C185.377 55.6707 182.44 55.9554 179.657 56.8153C177.422 57.5711 175.366 58.7594 173.615 60.3086Z" fill="#FFCD03"/>
<path fill-rule="evenodd" clip-rule="evenodd" d="M417.324 72.7832C417.395 78.7149 414.992 85.9206 410.287 89.2582C409.524 89.8001 405.736 92.0656 404.612 90.9876C403.635 90.0422 405.097 85.6496 405.547 84.6466C406.355 82.9219 407.377 81.2997 408.589 79.8159C410.198 77.8387 414.572 73.1867 417.324 72.7832ZM417.442 69.6357C413.24 70.2987 407.299 76.1958 405.269 79.2279C403.689 81.4588 402.528 83.9455 401.842 86.572C399.51 96.0489 407.044 95.5762 412.495 91.2585C416.691 87.9324 419.123 82.5195 419.981 77.17C420.389 74.5356 421.141 69.0535 417.442 69.6357Z" fill="#FFCD03"/>
<path fill-rule="evenodd" clip-rule="evenodd" d="M382.791 90.9299L382.761 92.0828C382.4 92.1404 382.673 92.1981 382.223 92.1116C381.572 91.9963 381.998 92.0482 381.785 91.881C381.738 90.3188 383.868 84.22 384.472 82.8192C384.146 85.027 382.631 88.3647 382.791 90.9529V90.9299ZM358.254 81.5164C358.314 79.4815 358.888 76.6108 359.124 74.4376C359.361 72.2643 359.468 69.5262 359.817 67.3414C362.587 69.7164 363.51 69.5089 364.682 70.3966C364.321 71.0941 363.356 72.1663 362.817 73.0368C362.279 73.9072 361.758 74.8007 361.208 75.7807L358.249 81.5452L358.254 81.5164ZM393.325 66.0329C392.657 66.6093 390.491 69.4628 389.845 70.3159C388.904 71.5668 387.579 73.6017 387.141 75.3656C387.928 69.9009 387.253 72.518 387.2 69.4339C389.431 68.5923 391.627 66.9437 393.296 65.8369C393.538 65.3815 393.438 65.5371 393.888 65.3296C393.852 65.4729 393.792 65.6094 393.71 65.7331C393.414 66.1193 393.633 65.8542 393.313 66.0329H393.325ZM315.531 50.0478C315.395 44.4735 313.999 38.0979 311.128 33.4517C310.259 32.0297 309.191 30.7318 307.956 29.5952C302.79 24.4821 292.137 25.047 287.053 29.8027C285.799 30.9137 284.7 32.1813 283.787 33.5727C282.806 34.9875 281.956 36.4845 281.248 38.046C276.56 48.255 274.797 60.8448 273.3 72.1433C272.453 78.4843 269.157 104.425 270.187 110.305C270.437 112.052 271.268 113.672 272.554 114.916C275.454 118.017 278.839 118.824 282.934 116.968C291.326 113.152 292.764 100.597 293.824 92.6881C294.096 90.6417 295.268 81.8219 295.877 80.646C296.392 84.0643 296.297 85.2979 297.83 88.209C298.978 90.3938 300.446 92.348 302.304 93.4432C307.631 96.5791 316.064 94.9651 320.568 90.7973C323.432 88.1514 325.012 86.8601 327.48 83.2169C329.646 80.0234 330.83 77.3141 332.357 73.7919C332.83 72.6967 333.256 71.3708 333.783 70.4081C334.049 73.9533 333.676 84.8195 333.706 89.4311C333.742 95.6165 333.96 101.813 334.535 107.924C335.044 113.348 335.872 119.522 337.529 124.335C338.435 126.952 339.453 128.993 341.08 130.463C343.394 132.527 346.406 131.432 348.111 129.76C349.999 127.938 350.289 126.013 350.875 122.871C351.383 120.122 351.833 117.401 352.253 114.616C354.425 100.205 355.479 85.5689 357.018 71.0538C357.171 69.6184 357.728 63.1852 358.077 62.3493C358.439 62.7456 358.767 63.1697 359.059 63.6175C363.007 68.6211 368.38 69.1745 368.872 69.5607L365.989 72.8062C363.057 76.3381 360.727 80.3068 359.089 84.5601C356.958 90.463 355.597 99.5767 357.627 106.039C358.734 109.555 360.332 111.227 363.61 112.57C368.842 114.674 373.801 114.605 378.82 111.855C381.499 110.411 383.654 108.196 384.993 105.514C385.945 103.497 385.797 102.522 385.993 100.228C386.326 101.882 386.893 103.483 387.679 104.984C390.171 109.595 395.45 111.325 400.883 112.017C411.843 113.365 422.188 106.575 427.899 98.9484C429.88 96.3364 431.511 93.4888 432.752 90.4745C435.522 83.6781 436.723 75.6308 434.634 67.9928C432.746 61.1042 428.852 55.5183 421.413 54.4577C407.949 52.5323 395.426 65.4103 389.686 76.0286C388.086 79.0404 386.786 82.1946 385.803 85.4478C385.254 87.2431 384.889 89.0872 384.714 90.9529C384.49 93.4721 384.957 94.8613 385.046 97.0691C384.117 95.9162 384.152 95.3686 382.791 94.5904C382.183 94.2527 381.481 94.1096 380.785 94.1811C379.725 94.2733 379.838 94.6941 379.009 94.7576C378.175 90.682 383.649 81.1705 384.501 75.6712C385.093 71.9876 384.342 71.1402 383.472 68.5347C396.586 64.6897 401.847 51.6849 393.953 40.1731C392.374 37.9287 390.299 36.0574 387.881 34.6968C387.052 34.2414 386.046 33.8149 385.259 33.3652C386.702 31.9801 387.825 30.3118 388.555 28.4711C390.331 24.1362 390.425 18.0258 383.294 19.1902C382.164 19.3588 381.05 19.6151 379.962 19.9569C378.974 20.2913 377.914 20.885 376.956 21.1444C376.549 19.5853 375.816 18.1251 374.802 16.8556C372.985 14.7054 367.664 15.3107 366.161 18.7406C365.031 21.3231 366.575 22.0725 366.617 24.0613C364.048 23.6635 365.131 23.6001 362.255 23.4848C360.426 23.4041 361.214 23.2081 360.243 20.6025C358.686 16.4521 356.816 13.4084 352.792 11.3216C341.548 5.51098 333.528 14.8726 328.232 23.064C325.083 27.9293 321.633 35.2272 319.355 40.6631C318.632 42.3925 316.893 46.0933 316.395 47.644C316.179 48.4584 315.896 49.2545 315.549 50.0247L315.531 50.0478ZM317.041 39.5736L316.792 39.8561L316.703 39.539C316.472 37.0142 314.04 31.9241 312.484 29.7393C310.605 26.9527 307.898 24.7908 304.725 23.5425C296.866 20.6602 287.497 24.2342 283.721 28.5115C279.082 33.7687 276.685 40.4383 274.726 47.4134C272.654 54.792 271.311 62.7644 270.193 70.6618C269.039 78.8647 268.216 87.2233 267.364 95.5588C266.961 99.5133 266.713 105.191 267.127 109.134C267.6 113.625 268.476 116.628 271.205 118.888C273.726 121.009 278.466 122.007 282.526 120.75C285.802 119.694 288.635 117.628 290.598 114.864C294.481 109.768 295.818 99.5191 296.516 92.959C296.889 93.2761 297.641 94.4232 298.026 94.8613C302.026 99.4038 310.69 99.9399 316.472 97.5534C319.307 96.4004 320.615 95.2072 322.74 93.5182L324.568 91.9617C325.284 91.2124 325.521 91.0221 326.344 90.2324C327.965 88.6298 330.439 84.906 330.865 84.5601C330.913 88.6817 330.7 92.8149 330.777 96.9769C330.848 100.885 331.013 104.794 331.368 108.65C332.013 115.735 334.026 133.916 343.382 134.354C348.081 134.579 350.153 132.838 351.887 130.267C353.514 127.852 354.532 124.393 355.153 121.09C356.148 115.815 355.745 113.942 356.236 109.751C356.929 110.61 356.893 111.446 358.716 113.452C362.095 117.176 367.593 118.392 372.884 117.62C379.11 116.709 385.105 113.25 387.176 107.244C387.602 107.687 387.898 108.396 388.325 108.944C391.1 112.553 396.876 114.363 401.599 114.605C418.602 115.47 433.296 102.874 437.226 85.3902C438.581 79.3547 439.167 72.3912 437.415 66.4018C433.758 53.8639 422.543 48.8949 410.192 53.0915C406.304 54.4116 402.942 56.752 400.084 59.2307L397.326 61.7844C398.052 60.8352 398.649 59.7986 399.101 58.7004C400.622 54.7747 401.167 50.4686 400.001 46.3931C397.083 36.1668 389.94 33.6246 389.348 32.8407C388.538 31.78 393.047 27.9062 391.793 21.7036C391.201 18.8559 389.763 17.5127 386.786 16.9882C382.329 16.21 379.092 18.4063 378.453 18.1411C378.033 17.7376 377.512 16.5443 377.139 15.9794C375.364 13.247 373.411 12.5207 369.73 13.0971C365.208 13.8177 363.812 16.1869 363.451 20.787C363.149 20.1471 362.983 19.3228 362.699 18.6138C360.971 14.3307 357.568 9.5231 352.916 7.85138C345.4 5.14781 339.772 6.56013 334.724 10.5722C327.415 16.3829 322.296 26.5919 318.644 35.4923C318.028 36.8209 317.492 38.1837 317.041 39.5736Z" fill="#00A54F"/>
<path fill-rule="evenodd" clip-rule="evenodd" d="M407.695 87.2923C408.287 84.877 411.986 79.66 413.518 78.9683C413.151 81.7237 409.595 87.0905 407.695 87.2923ZM417.324 72.783C414.572 73.1865 410.222 77.8384 408.589 79.8157C407.377 81.2994 406.355 82.9216 405.547 84.6464C405.097 85.6379 403.635 90.0305 404.612 90.9874C405.736 92.0769 409.524 89.8345 410.287 89.258C414.992 85.9261 417.395 78.7147 417.324 72.783Z" fill="#00A54F"/>
<path fill-rule="evenodd" clip-rule="evenodd" d="M374.104 29.1224C373.933 29.8597 373.891 30.6197 373.979 31.3706C374.953 30.9144 375.884 30.3763 376.761 29.7623C377.618 29.1685 378.518 28.6349 379.454 28.1655C378.727 29.0888 377.884 29.9196 376.944 30.6385L374.121 32.8463C374.766 33.2204 375.494 33.435 376.243 33.4712C376.992 33.5073 377.739 33.364 378.418 33.0538C379.597 32.5608 380.683 31.8788 381.632 31.0362C382.815 29.8833 384.869 26.1998 384.881 23.7672C380.673 23.7095 375.311 24.3782 374.104 29.1224Z" fill="#00A54F"/>
<path fill-rule="evenodd" clip-rule="evenodd" d="M312.401 66.9722C311.738 57.8815 312.495 36.2127 302.873 31.6298C298.842 29.7103 293.889 30.1772 290.634 32.4599C285.225 36.2472 282.467 44.26 280.656 52.6358C278.188 64.0669 274.886 92.855 274.146 105.889C274.004 108.315 274.027 110.396 275.383 111.953C276.004 112.741 276.874 113.309 277.858 113.57C278.842 113.832 279.887 113.772 280.833 113.4C287.296 110.99 288.628 97.9912 289.492 91.9557C290.734 83.2801 292.391 75.3193 294.427 66.88C294.782 65.4043 297.221 55.6737 297.765 55.1492C298.357 55.8812 298.878 66.7878 299.026 68.7362C299.339 72.8348 299.765 78.1151 300.766 81.937C303.512 92.4457 313.72 91.5003 318.704 85.7992C321.106 83.0945 323.196 80.1406 324.935 76.991C329.51 68.7131 332.99 59.5187 335.919 50.4338L337.334 46.2545C337.442 45.7617 337.69 45.3084 338.05 44.9459C338.594 47.5919 338.565 60.0375 338.642 63.5942C338.766 69.8776 338.878 76.2128 339.032 82.4961C339.18 88.6354 339.624 94.6651 340.098 100.741C340.465 105.6 341.743 122.07 343.512 126.347C344.288 128.22 345.347 127.264 345.844 125.857C346.773 123.228 346.892 115.804 347.152 112.656C347.401 109.705 347.673 106.713 347.963 103.756C349.111 92.0941 350.395 80.5362 351.928 68.9495C352.68 63.2714 353.408 57.576 354.295 51.9556C355.674 43.3665 359.166 25.5886 353.792 18.4579C352.281 16.5595 350.108 15.2656 347.685 14.8205C344.323 14.244 342.098 15.2182 339.991 16.7343C331.451 22.8793 323.722 43.1013 318.727 53.979L314.212 64.0208C313.833 64.8393 313.217 66.903 312.401 66.9722Z" fill="#EB2225"/>
<path fill-rule="evenodd" clip-rule="evenodd" d="M417.441 69.6357C421.14 69.0592 420.4 74.5355 419.968 77.1699C419.11 82.5194 416.678 87.9323 412.482 91.2584C407.043 95.5761 399.509 96.0488 401.829 86.5719C402.516 83.9454 403.676 81.4587 405.256 79.2279C407.286 76.1957 413.228 70.2986 417.43 69.6357H417.441ZM416.394 59.2595C411.488 59.8359 406.493 62.5395 402.782 65.416C402.25 65.8253 401.711 66.2057 401.202 66.6611C398.616 68.967 399.142 68.7998 397.059 70.9615C390.632 77.6253 386.46 88.4396 389.744 97.8358C391.78 103.681 396.639 107.019 403.054 107.14C406.253 107.116 409.41 106.439 412.322 105.151C415.725 103.756 416.755 102.816 419.276 100.805C423.194 97.6686 426.259 93.472 428.644 87.6844C431.029 81.8968 431.189 74.8929 429.372 68.5173C427.792 62.9603 423.697 58.4179 416.394 59.248V59.2595Z" fill="#EB2225"/>
<path fill-rule="evenodd" clip-rule="evenodd" d="M375.506 69.9355C371.268 71.1633 368.866 74.501 366.782 78.0058C364.593 81.6617 362.902 85.58 361.752 89.6617C358.793 100.107 360.213 110.835 373.647 108.062C377.891 107.186 383.27 105.22 382.998 100.568C382.578 93.4375 374.659 104.298 373.908 94.746C373.434 88.6933 377.956 82.2485 378.743 74.818C379.009 72.3162 378.69 69.0074 375.506 69.9355Z" fill="#EB2225"/>
<path fill-rule="evenodd" clip-rule="evenodd" d="M416.394 59.2479C423.697 58.4178 427.793 62.9602 429.379 68.5173C431.196 74.8928 431.06 81.8506 428.651 87.6843C426.242 93.5181 423.2 97.6685 419.282 100.804C416.761 102.816 415.732 103.756 412.329 105.151C409.414 106.435 406.254 107.109 403.055 107.128C396.64 107.007 391.781 103.669 389.745 97.8242C386.46 88.428 390.633 77.6137 397.06 70.9499C399.143 68.7882 398.616 68.9554 401.203 66.6496C401.711 66.1942 402.25 65.8137 402.783 65.4044C406.493 62.5221 411.488 59.807 416.394 59.2479ZM375.506 69.9353C378.69 69.0073 379.009 72.3161 378.743 74.8064C377.956 82.2369 373.417 88.6816 373.908 94.7344C374.66 104.286 382.578 93.4258 382.998 100.557C383.271 105.22 377.891 107.186 373.648 108.05C360.213 110.823 358.805 100.095 361.752 89.6501C362.902 85.5683 364.593 81.65 366.783 77.9942C368.866 74.4893 371.269 71.1517 375.506 69.9238V69.9353ZM312.401 66.9724C311.738 57.8817 312.495 36.2128 302.873 31.63C298.842 29.7104 293.889 30.1773 290.634 32.4601C285.225 36.2474 282.467 44.2601 280.656 52.636C278.188 64.067 274.886 92.8551 274.146 105.889C274.004 108.316 274.028 110.397 275.383 111.953C276.004 112.741 276.874 113.309 277.858 113.57C278.842 113.832 279.887 113.772 280.833 113.4C287.296 110.99 288.628 97.9913 289.492 91.9559C290.734 83.2802 292.392 75.3194 294.427 66.8801C294.782 65.4044 297.221 55.6739 297.765 55.1493C298.357 55.8814 298.878 66.7879 299.026 68.7363C299.339 72.8349 299.766 78.1152 300.766 81.9371C303.512 92.4459 313.721 91.5005 318.704 85.7993C321.106 83.0946 323.196 80.1408 324.935 76.9911C329.51 68.7133 332.99 59.5188 335.92 50.4339L337.334 46.2546C337.442 45.7618 337.691 45.3085 338.05 44.9461C338.594 47.592 338.565 60.0376 338.642 63.5944C338.766 69.8777 338.879 76.2129 339.032 82.4963C339.18 88.6355 339.624 94.6652 340.098 100.741C340.465 105.601 341.743 122.07 343.512 126.347C344.288 128.221 345.347 127.264 345.844 125.857C346.773 123.228 346.892 115.804 347.152 112.656C347.401 109.705 347.673 106.713 347.963 103.756C349.111 92.0942 350.395 80.5363 351.928 68.9496C352.68 63.2715 353.408 57.5762 354.295 51.9558C355.674 43.3666 359.166 25.5888 353.792 18.458C352.281 16.5596 350.108 15.2658 347.685 14.8206C344.323 14.2441 342.098 15.2184 339.991 16.7344C331.451 22.8794 323.722 43.1014 318.727 53.9791L314.212 64.0209C313.833 64.8164 313.217 66.9032 312.401 66.9493V66.9724ZM369.481 20.908C369.191 21.1904 369.227 20.4526 369.256 21.4844C369.617 21.6343 369.304 21.2423 369.653 21.911C369.757 22.1441 369.848 22.3828 369.925 22.6258C370.99 25.4389 372.961 30.5117 372.121 33.4401C371.73 33.1864 370.529 30.5578 368.049 29.0417C365.955 27.8724 363.567 27.2954 361.154 27.3758C361.154 29.5375 362.468 32.3909 363.522 33.8724C364.853 35.7632 367.534 36.7201 369.961 36.5356C369.174 36.599 366.078 38.3111 365.191 38.9452C356.313 45.2862 357.823 57.5762 366.51 62.5221C369.748 64.361 374.464 65.4563 378.666 64.4475C383.016 63.3983 385.833 61.5364 387.993 59.075C389.306 57.5583 390.264 55.7821 390.803 53.8691C391.341 51.9562 391.447 49.9521 391.112 47.9955C389.928 41.5681 385.987 38.3169 380.536 36.4664C378.092 35.6479 376.559 35.6998 373.796 35.6652C373.861 35.2271 373.991 34.7544 374.038 34.3681C374.103 33.832 374.038 33.4228 374.127 32.8578C374.771 33.232 375.5 33.4465 376.249 33.4827C376.998 33.5189 377.745 33.3756 378.424 33.0654C379.603 32.5723 380.689 31.8904 381.637 31.0478C382.821 29.8949 384.874 26.2113 384.886 23.7787C380.678 23.721 375.317 24.3897 374.109 29.1339C373.843 28.7996 373.867 27.3412 373.813 26.6264C373.707 25.3294 372.949 20.1874 372.381 19.5014L371.866 19.6513C371.387 19.6978 370.922 19.837 370.499 20.0606C369.907 20.3719 369.872 20.6774 369.487 20.9195L369.481 20.908ZM315.531 50.0477C315.395 44.4734 313.999 38.0978 311.128 33.4516C310.259 32.0295 309.191 30.7317 307.956 29.5951C302.79 24.482 292.137 25.0469 287.053 29.8026C285.799 30.9135 284.7 32.1812 283.787 33.5726C282.806 34.9874 281.956 36.4844 281.248 38.0459C276.561 48.2549 274.797 60.8447 273.3 72.1432C272.453 78.4841 269.157 104.425 270.187 110.304C270.437 112.052 271.268 113.672 272.554 114.916C275.454 118.017 278.839 118.824 282.934 116.968C291.326 113.152 292.764 100.597 293.824 92.688C294.096 90.6416 295.268 81.8218 295.877 80.6459C296.392 84.0642 296.298 85.2978 297.83 88.2089C298.978 90.3937 300.446 92.3479 302.304 93.4431C307.631 96.579 316.064 94.965 320.568 90.7972C323.432 88.1513 325.012 86.86 327.48 83.2168C329.646 80.0233 330.83 77.314 332.357 73.7918C332.83 72.6966 333.256 71.3707 333.783 70.408C334.049 73.9532 333.676 84.8194 333.706 89.431C333.742 95.6163 333.961 101.813 334.535 107.924C335.044 113.348 335.872 119.522 337.529 124.335C338.435 126.952 339.453 128.993 341.08 130.463C343.394 132.527 346.406 131.431 348.111 129.76C349.999 127.938 350.289 126.013 350.875 122.871C351.384 120.121 351.833 117.401 352.254 114.616C354.426 100.205 355.479 85.5688 357.018 71.0537C357.172 69.6183 357.728 63.1851 358.077 62.3492C358.439 62.7455 358.768 63.1696 359.059 63.6174C363.007 68.621 368.381 69.1744 368.872 69.5606L365.99 72.8061C363.057 76.3379 360.727 80.3067 359.089 84.56C356.958 90.4629 355.597 99.5766 357.627 106.039C358.734 109.555 360.332 111.227 363.61 112.57C368.842 114.674 373.802 114.605 378.82 111.855C381.499 110.411 383.654 108.196 384.993 105.514C385.946 103.496 385.798 102.522 385.993 100.228C386.326 101.882 386.893 103.482 387.68 104.984C390.171 109.595 395.45 111.325 400.883 112.016C411.843 113.365 422.188 106.575 427.899 98.9483C429.881 96.3363 431.511 93.4887 432.752 90.4744C435.522 83.678 436.723 75.6307 434.634 67.9927C432.746 61.1041 428.852 55.5182 421.413 54.4576C407.949 52.5322 395.426 65.4102 389.686 76.0285C388.086 79.0403 386.786 82.1945 385.804 85.4477C385.254 87.243 384.889 89.0871 384.715 90.9528C384.49 93.4719 384.957 94.8612 385.046 97.069C384.117 95.9161 384.152 95.3685 382.791 94.5903C382.183 94.2526 381.481 94.1095 380.785 94.181C379.726 94.2732 379.838 94.694 379.009 94.7574C378.175 90.6819 383.649 81.1704 384.502 75.6711C385.093 71.9875 384.342 71.1401 383.472 68.5345C396.586 64.6896 401.848 51.6848 393.953 40.173C392.374 37.9286 390.299 36.0573 387.881 34.6967C387.052 34.2413 386.046 33.8148 385.259 33.3651C386.702 31.98 387.825 30.3117 388.555 28.471C390.331 24.1361 390.426 18.0257 383.294 19.1901C382.164 19.3586 381.05 19.615 379.962 19.9568C378.974 20.2911 377.915 20.8849 376.956 21.1443C376.549 19.5852 375.816 18.125 374.802 16.8555C372.985 14.7053 367.664 15.3106 366.161 18.7405C365.031 21.323 366.575 22.0724 366.617 24.0611C364.048 23.6634 365.131 23.6 362.255 23.4847C360.427 23.404 361.214 23.208 360.243 20.6024C358.687 16.452 356.816 13.4083 352.792 11.3215C341.548 5.51087 333.529 14.8725 328.232 23.0639C325.083 27.9292 321.633 35.2271 319.355 40.663C318.633 42.3924 316.893 46.0932 316.396 47.6439C316.175 48.4666 315.886 49.2705 315.531 50.0477Z" fill="#FFCB05"/>
<path fill-rule="evenodd" clip-rule="evenodd" d="M71.012 61.5079L71.1777 61.2254C71.373 61.3522 71.2961 60.9199 71.3493 61.4848C71.5032 63.2142 69.7337 83.5803 69.4733 87.2177C69.3312 89.1315 68.5796 94.3369 68.9643 95.9048L79.7531 95.9337C80.6704 95.9337 80.6941 95.6339 81.0965 95.069C81.7238 94.187 82.2269 93.4146 82.8364 92.4576C85.109 88.9009 87.5177 85.5402 89.8258 82.0238C92.1338 78.5075 94.4419 75.1871 96.75 71.6477C97.7324 70.1604 103.029 61.8479 103.852 61.3464L90.9088 95.853L102.153 95.9221L109.427 75.9653C110.249 73.6595 111.238 71.763 112.131 69.5782C113.185 67.013 121.997 44.0182 121.92 43.2112H106.994C105.083 43.2112 105.479 42.8077 103.935 45.1712C97.4957 55.0055 90.6543 65.4335 84.4048 75.337C83.7064 76.438 81.1616 80.6807 80.3686 81.2341C80.3331 77.7754 82.7832 57.9223 83.3276 52.8956C83.665 49.8404 84.2095 46.3125 84.2213 43.24H67.3428C66.9403 43.3553 66.6977 44.3411 66.532 44.7561L52.0325 82.6176C51.2158 84.8196 50.3873 87.062 49.541 89.2237C48.7361 91.2644 47.7656 93.7316 47.1737 95.8126C48.3159 96.1008 56.2699 95.9855 57.9862 95.9452L61.2412 87.3906C63.4072 82.0065 65.6738 75.6425 67.7511 70.097C68.7749 67.2263 70.0414 64.2806 71.012 61.5079Z" fill="#FFCB05"/>
<path fill-rule="evenodd" clip-rule="evenodd" d="M317.218 32.224C321.858 23.4389 325.504 12.9705 334.523 7.37889C337.082 5.82262 339.949 4.80974 342.937 4.40645C345.925 4.00315 348.966 4.21852 351.863 5.03848C354.469 5.66032 356.885 6.87754 358.912 8.58944C362.078 11.1374 362.38 13.0743 363.534 14.475C364.037 14.0715 364.504 13.4893 365.078 13.0973C368.458 10.7915 375.104 10.3303 378.098 14.2041C378.453 14.6595 378.85 15.4838 379.211 15.8528C382.087 14.8382 383.176 14.2675 386.745 14.9593C389.26 15.4492 391.39 16.5618 392.527 18.0779C393.9 19.8995 394.397 22.4128 394.136 25.2028C393.858 28.1543 392.953 29.4974 392.243 32.028C393.113 33.181 397.196 35.579 400.007 40.5423C402.7 45.3038 402.866 48.2091 402.966 53.5644C403.949 53.2127 405.493 52.2962 406.6 51.7889C419.667 45.8341 432.918 49.3044 438.593 62.2746C439.714 64.8974 440.49 67.6478 440.902 70.4602C443.458 87.3734 434.102 104.609 420.662 112.899C412.601 117.874 399.682 119.539 390.692 114.628L387.597 112.489C385.91 113.717 386.046 114.864 381.773 117.251C376.867 120.001 369.842 121.148 364.356 119.297C361.397 118.3 360.089 116.992 357.846 115.47C357.568 117.199 357.574 119.171 357.32 120.946C356.941 124.17 356.025 127.313 354.609 130.25C354.248 130.953 353.763 131.576 353.461 132.187C353.191 132.841 352.743 133.411 352.165 133.836C349.922 135.496 347.969 137.652 343.524 137.381C333.919 136.804 330.505 123.338 329.321 115.366C328.09 106.76 328.415 100.955 328.084 92.6191C327.433 92.9996 326.214 94.4695 325.385 95.1152C320.13 99.1849 313.733 103.013 306.447 101.894C301.855 101.185 300.943 99.5884 299.079 98.8448C298.203 107.492 295.451 114.772 290.794 119.361C281.686 128.296 266.382 124.785 264.559 112.276C263.322 103.756 265.423 88.1343 266.654 79.0551C266.873 77.4641 267.494 74.1956 267.405 72.8122C267.328 74.3974 258.451 96.7811 256.841 100.736C256.628 101.254 256.469 102.131 255.948 102.338H243.253C241.703 102.338 238.359 102.505 237.051 102.159C235.98 101.871 235.637 102.159 234.542 102.384C229.938 103.289 224.86 103.324 220.457 102.061C215.13 100.534 214.189 98.2568 212.864 97.2884C209.244 99.5468 205.296 101.261 201.152 102.373C187.966 105.664 173.206 101.589 172.508 86.9468C172.443 85.6267 172.644 84.2951 172.549 83.073L165.359 102.252L140.26 102.315L140.467 100.286C139.319 100.591 137.964 101.272 136.68 101.681C130.11 103.797 121.292 104.258 114.865 101.514C110.936 99.8363 110.131 98.2799 108.847 97.4786L108.781 97.5651C108.363 98.32 108.019 99.1112 107.752 99.9285C107.385 100.77 107.018 101.548 106.663 102.304L37.8289 102.35C38.2313 99.8075 39.7996 96.1873 40.7229 93.7028L49.9137 69.3016C51.9259 63.8598 54.1215 58.4527 56.0982 52.9418C58.0393 47.5347 60.0397 41.9027 62.3655 36.8011H91.4532C91.6425 42.4446 90.1393 48.872 89.8138 54.5386L90.1748 54.2042C91.0034 53.2473 95.2467 46.572 95.8858 45.5574C96.3238 44.8772 101.331 36.9106 101.999 36.7723L132.046 36.8011L126.246 52.4633C127.347 52.1232 128.548 51.4949 129.797 51.0856C133.938 49.7519 138.294 49.1658 142.651 49.3563C148.835 49.6214 153.534 51.5814 156.618 54.7C157.21 54.0198 158.275 50.7628 159.482 50.4861C165.897 50.4861 172.662 50.6994 179.012 50.4861C181.539 50.4054 182.362 49.4081 187.86 49.6791C190.757 49.8723 193.64 50.2303 196.494 50.7513C198.305 51.0568 198.66 50.6129 200.507 50.2094C201.886 49.9094 203.284 49.6919 204.691 49.558C207.72 49.2447 210.78 49.3612 213.775 49.9039C218.002 50.598 221.88 52.6229 224.812 55.6684C225.239 56.0892 225.505 56.5619 225.955 56.9827C227.576 56.1757 229.571 53.328 236.264 51.2701C246.112 48.2379 264.411 47.7422 268.05 59.6978C268.305 60.5279 268.447 62.2976 268.755 62.8971C269.08 62.0613 269.471 58.4354 269.672 57.2306C269.968 55.4321 270.299 53.6393 270.66 51.8292C271.974 45.1827 273.927 38.3575 277.377 32.6506C278.762 30.3448 281.118 27.2954 283.26 25.6006C285.716 23.6579 288.231 21.7268 291.427 20.62C294.735 19.4671 299.594 19.5017 303.133 20.3722C304.776 20.7852 306.365 21.3809 307.868 22.1476C314.378 25.4853 316.153 30.9789 317.177 32.2356L317.218 32.224ZM9.29754 72.8986C10.0196 83.563 12.6946 92.9361 17.2042 101.145C19.8092 105.968 22.9873 110.476 26.6732 114.576C27.0875 115.026 27.3952 115.314 27.774 115.729C28.1118 116.139 28.4797 116.524 28.8748 116.882C29.8276 117.718 30.3306 118.375 31.171 119.09L36.1777 123.258C42.4313 128.103 49.5133 131.836 57.0984 134.285C68.5263 138.021 78.2735 137.779 90.305 137.779C139.43 137.779 188.56 137.729 237.696 137.629H348.555C360.8 137.629 373.133 137.738 385.366 137.577C407.624 137.289 424.923 134.366 440.446 119.442C442.263 117.712 444.275 115.47 445.991 113.446L448.95 109.671C457.354 97.7957 462.171 83.8685 461.473 68.1659C461.005 57.7494 458.082 47.6499 453.708 39.7641C451.891 36.484 448.85 31.6937 446.323 28.8979L439.665 21.9401C436.623 18.9137 429.882 14.1695 426.485 12.2615C410.559 3.32642 398.468 3.22842 380.513 3.21689C331.333 3.17078 282.153 3.38983 232.98 3.31489L122.115 3.26301C109.965 3.26301 97.6317 3.18807 85.4995 3.44747C70.065 3.78182 67.7451 2.4502 52.9852 7.77664C47.0257 9.91528 38.8291 14.4462 34.0294 18.4814L30.3898 21.6058C29.2062 22.6319 26.9987 24.9953 25.8743 26.2174C15.2157 38.0808 8.19085 56.6138 9.29754 72.8986Z" fill="#0000E6"/>
<path fill-rule="evenodd" clip-rule="evenodd" d="M232.175 86.3527C232.369 85.5897 232.772 84.8922 233.341 84.3348C233.91 83.7775 234.624 83.3811 235.406 83.188C237.165 82.6393 238.985 82.2949 240.827 82.1619C240.004 84.8021 234.619 86.6179 232.175 86.3527ZM246.763 77.1295C246.597 77.1295 242.981 78.4899 240.945 78.8589C236.554 79.6947 232.394 79.7005 229.902 83.3898C224.262 91.7426 236.288 90.3591 241.076 86.7678C242.585 85.678 243.823 84.2712 244.697 82.6519C245.39 81.4241 246.615 78.6456 246.763 77.1064V77.1295Z" fill="#252B79"/>
<path fill-rule="evenodd" clip-rule="evenodd" d="M130.791 70.293C131.211 69.0363 134.2 67.3358 135.845 66.9496C138.39 66.3731 140.727 67.6932 140.473 70.2988L130.791 70.293ZM126.086 72.5988L143.213 72.6507C143.627 71.8552 143.538 69.7684 143.379 68.7596C142.722 64.8628 139.266 63.2372 135.407 64.4593C131.892 65.543 126.163 70.1431 126.086 72.5757V72.5988Z" fill="#252B79"/>
<path fill-rule="evenodd" clip-rule="evenodd" d="M42.4386 98.9486C42.6102 97.0347 57.6127 58.5968 59.0094 54.8095C59.9503 52.3019 60.8203 49.8232 61.7495 47.3156L64.5724 40.0869C71.9819 39.9658 80.3798 40.0869 87.878 40.0869C87.8314 42.4657 87.6337 44.8395 87.2862 47.1945L85.7298 60.8104C85.5522 62.436 84.9841 66.2636 85.1853 67.7278C86.1631 66.5465 87.0343 65.2852 87.7893 63.9578C90.1565 60.1244 92.8019 56.2852 95.2698 52.3423C96.9032 49.7309 98.6254 47.183 100.312 44.6005C103.614 39.5623 103.017 40.0869 105.544 40.0984L126.76 40.1733C126.76 40.9227 123.553 48.9816 123.014 50.463C122.422 52.1463 121.748 53.8699 121.12 55.5646C120.588 56.9827 119.51 59.3692 119.226 60.7527C120.008 60.2051 120.558 59.6978 121.422 59.0753C123.639 57.5361 126.003 56.2098 128.482 55.115C135.969 51.9215 150.326 51.0164 155.499 58.1817C156.949 60.1936 157.014 61.7558 157.765 62.3322L161.133 53.8353H177.597C178.295 53.8353 178.017 54.0371 178.307 54.5501C180.432 54.0313 181.391 53.1435 185.154 52.8899C187.906 52.7054 190.262 53.3453 192.913 53.5932L191.659 57.4208C192.842 57.1268 194.245 56.095 195.292 55.5704C201.98 52.2097 212.881 51.3392 219.391 55.2591C224.125 58.101 224.646 61.6289 225.398 62.2746C227.268 60.9718 227.86 58.3893 234.654 55.3571C241.276 52.4057 257.007 51.0453 262.641 57.3228C265.872 60.9257 265.292 67.088 263.824 72.1031C262.931 75.1756 260.167 82.4332 258.936 85.6901C258.119 87.8576 254.71 97.8706 253.787 98.9486L238.66 98.9774C237.802 98.9774 237.648 98.839 237.394 98.1761C234.139 98.6546 233.393 99.721 227.534 99.7326C215.408 99.7614 214.621 93.2936 213.55 92.4346C212.331 93.0399 210.762 94.7404 207.271 96.4986C194.345 103.018 174.307 101.865 175.644 84.3124C176.283 75.9077 180.177 71.4863 180.751 69.267C172.774 69.5494 171.49 75.4523 169.081 81.8164L164.145 94.9364C162.464 99.3117 163.204 98.9716 161.186 98.9716C157.558 98.9716 147.178 99.133 144.124 98.937C144.16 97.0982 145.823 94.9537 146.083 93.0226C145.675 93.1725 141.798 96.1297 137.206 97.8937C133.481 99.3383 129.508 100.078 125.5 100.073C121.316 100.073 117.256 99.2368 114.255 97.4498C112.107 96.198 110.345 94.4059 109.154 92.2617C108.769 91.5008 108.455 90.3479 107.97 90.0942C107.285 91.5721 106.692 93.089 106.195 94.6367C105.715 95.9279 105.011 98.032 104.384 98.9601C98.8976 98.9601 91.5946 99.0754 86.2742 98.9601C86.3334 97.5651 87.6887 94.6425 88.2213 93.2647C88.8131 91.8005 89.9967 89.2814 90.2157 87.7769C89.2984 88.1573 85.2681 94.6367 84.191 96.2911C83.7531 96.9598 82.6405 98.9659 82.1197 98.9601C78.1782 98.9601 68.431 99.1157 65.1642 98.9313L66.2236 84.0472C65.3477 85.229 62.3472 93.3858 61.5897 95.6743C60.9979 97.4728 60.8085 98.9659 59.4355 98.9659C54.2038 98.9659 47.4512 99.0754 42.3971 98.914L42.4386 98.9486ZM316.721 39.5392L317.058 39.5738C317.523 38.1772 318.072 36.8086 318.703 35.4752C322.331 26.5748 327.474 16.3658 334.783 10.5551C339.831 6.51997 345.435 5.13071 352.975 7.83428C357.627 9.506 361.03 14.3136 362.758 18.5967C363.042 19.3057 363.208 20.13 363.509 20.7699C363.853 16.1583 365.285 13.8006 369.789 13.08C373.47 12.5036 375.417 13.2011 377.198 15.9623C377.571 16.5387 378.092 17.6916 378.512 18.124C379.145 18.4007 382.388 16.2044 386.845 16.9711C389.804 17.4957 391.277 18.8388 391.851 21.6865C393.106 27.8891 388.596 31.7629 389.407 32.8236C389.999 33.6075 397.13 36.1497 400.06 46.376C401.244 50.4515 400.652 54.7576 399.16 58.6833C398.707 59.7815 398.111 60.8181 397.385 61.7673L400.143 59.2136C403.001 56.7349 406.363 54.3945 410.251 53.0744C422.59 48.8778 433.805 53.8468 437.474 66.3847C439.25 72.374 438.658 79.3376 437.285 85.3731C433.355 102.857 418.661 115.452 401.658 114.588C396.923 114.346 391.159 112.536 388.383 108.927C387.957 108.379 387.661 107.67 387.235 107.226C385.164 113.245 379.169 116.703 372.943 117.603C367.617 118.375 362.154 117.159 358.775 113.435C356.952 111.429 357 110.593 356.295 109.734C355.81 113.925 356.206 115.798 355.212 121.073C354.591 124.376 353.573 127.835 351.945 130.25C350.211 132.821 348.14 134.562 343.441 134.337C334.084 133.899 332.072 115.718 331.427 108.633C331.072 104.777 330.906 100.868 330.835 96.9598C330.758 92.7978 330.972 88.6646 330.924 84.543C330.498 84.8889 328.024 88.6127 326.403 90.2153C325.58 91.0223 325.343 91.2126 324.627 91.9447L322.799 93.5011C320.662 95.1901 319.366 96.3834 316.531 97.5363C310.749 99.9228 302.085 99.3867 298.084 94.8442C297.7 94.4061 296.948 93.259 296.575 92.9419C295.871 99.5193 294.534 109.769 290.657 114.847C288.694 117.611 285.861 119.677 282.585 120.733C278.525 121.989 273.785 120.992 271.263 118.871C268.535 116.565 267.659 113.608 267.186 109.117C266.772 105.174 267.02 99.4962 267.423 95.5417C268.275 87.2062 269.097 78.8246 270.251 70.6447C271.37 62.7473 272.713 54.7749 274.785 47.3963C276.744 40.4212 279.14 33.7516 283.78 28.4944C287.556 24.2171 296.924 20.62 304.784 23.5254C307.957 24.7737 310.664 26.9356 312.542 29.7222C314.099 31.8955 316.531 36.9855 316.762 39.5219L316.721 39.5392ZM317.218 32.224C316.182 30.9674 314.424 25.4738 307.909 22.1361C306.405 21.3694 304.817 20.7736 303.174 20.3606C299.623 19.4902 294.776 19.4671 291.468 20.6085C288.272 21.7153 285.757 23.6464 283.301 25.5891C281.159 27.2838 278.803 30.3448 277.418 32.6391C273.968 38.346 272.015 45.1712 270.701 51.8177C270.34 53.6278 270.009 55.4205 269.713 57.2191C269.512 58.4239 269.121 62.0498 268.796 62.8856C268.488 62.3092 268.346 60.5164 268.091 59.6863C264.452 47.7307 246.153 48.2264 236.305 51.2585C229.612 53.3165 227.617 56.1642 225.996 56.9712C225.546 56.5504 225.279 56.0777 224.853 55.6569C221.92 52.6114 218.043 50.5865 213.816 49.8923C210.821 49.3497 207.761 49.2332 204.732 49.5465C203.325 49.6803 201.927 49.8979 200.548 50.1979C198.701 50.6014 198.346 51.0452 196.535 50.7397C193.681 50.2188 190.798 49.8607 187.901 49.6675C182.403 49.3966 181.58 50.3939 179.053 50.4746C172.685 50.6879 165.921 50.4746 159.523 50.4746C158.339 50.7513 157.274 54.0082 156.659 54.6884C153.575 51.5698 148.876 49.6099 142.692 49.3447C138.335 49.1543 133.979 49.7404 129.838 51.0741C128.571 51.4834 127.37 52.1117 126.287 52.4518L132.087 36.7896L102.04 36.7607C101.371 36.8876 96.3647 44.8657 95.9267 45.5459C95.2876 46.5374 91.0442 53.2127 90.2157 54.1927L89.8547 54.527C90.1802 48.8605 91.6834 42.4215 91.494 36.7896H62.4064C60.0805 41.8969 58.0802 47.5289 56.1391 52.9303C54.1624 58.4412 51.9964 63.8483 49.9546 69.29L40.7223 93.6798C39.7991 96.1643 38.2308 99.7844 37.8283 102.327L106.662 102.28C107.017 101.525 107.384 100.747 107.751 99.9055C108.018 99.0882 108.363 98.2969 108.781 97.542L108.846 97.4556C110.13 98.2799 110.935 99.8363 114.865 101.491C121.286 104.235 130.11 103.797 136.679 101.658C137.963 101.249 139.319 100.568 140.467 100.263L140.259 102.292L165.358 102.229L172.549 83.0442C172.644 84.2663 172.442 85.5979 172.507 86.918C173.206 101.56 187.966 105.635 201.151 102.344C205.3 101.241 209.255 99.5345 212.881 97.2826C214.207 98.2511 215.159 100.528 220.474 102.056C224.877 103.318 229.943 103.284 234.559 102.378C235.654 102.159 235.997 101.865 237.068 102.154C238.376 102.5 241.72 102.332 243.271 102.332H255.965C256.486 102.125 256.646 101.249 256.859 100.73C258.451 96.7811 267.328 74.3974 267.428 72.8294C267.517 74.2129 266.896 77.4814 266.677 79.0724C265.446 88.1516 263.345 103.773 264.582 112.293C266.405 124.803 281.709 128.313 290.817 119.378C295.492 114.766 298.244 107.526 299.102 98.8621C300.967 99.6172 301.878 101.203 306.47 101.912C313.756 103.03 320.153 99.2022 325.408 95.1324C326.237 94.4868 327.456 93.0169 328.107 92.6364C328.439 100.978 328.107 106.777 329.344 115.383C330.486 123.356 333.931 136.822 343.548 137.398C347.992 137.669 349.945 135.513 352.188 133.853C352.766 133.428 353.214 132.858 353.484 132.204C353.786 131.593 354.271 130.971 354.632 130.267C356.048 127.33 356.964 124.187 357.343 120.963C357.597 119.188 357.591 117.193 357.869 115.487C360.13 117.026 361.42 118.317 364.379 119.315C369.866 121.165 376.89 120.018 381.796 117.268C386.069 114.882 385.939 113.735 387.62 112.507L390.715 114.645C399.705 119.539 412.612 117.874 420.685 112.916C434.125 104.627 443.481 87.3907 440.925 70.4775C440.513 67.6651 439.737 64.9147 438.617 62.2919C432.941 49.3217 419.678 45.8514 406.623 51.8062C405.516 52.3134 403.972 53.23 402.989 53.5817C402.859 48.2264 402.693 45.3211 400.03 40.5596C397.219 35.5963 393.136 33.2098 392.266 32.0453C392.994 29.5147 393.881 28.1716 394.159 25.2201C394.42 22.4301 393.923 19.9168 392.55 18.0952C391.413 16.5791 389.283 15.4665 386.768 14.9765C383.217 14.2848 382.11 14.8555 379.234 15.87C378.873 15.5011 378.476 14.6768 378.121 14.2214C375.109 10.3476 368.463 10.7627 365.101 13.1146C364.51 13.5066 364.06 14.0888 363.557 14.4923C362.403 13.0915 362.101 11.1547 358.935 8.60673C356.908 6.89483 354.492 5.67762 351.886 5.05578C348.99 4.23582 345.948 4.02044 342.96 4.42374C339.972 4.82703 337.105 5.83991 334.546 7.39618C325.485 12.9705 321.858 23.4389 317.218 32.224Z" fill="white"/>
<path fill-rule="evenodd" clip-rule="evenodd" d="M135.455 82.2888C135.034 83.5397 132.087 85.2863 130.377 85.6725C127.785 86.249 125.406 84.9174 125.719 82.2888H135.455ZM204.537 78.7263C202.921 81.3146 200.453 84.6522 197.11 85.3497C191.612 86.5315 194.559 78.709 195.642 76.4032C197.228 73.0252 199.282 70.2582 201.755 68.4539C202.998 67.5488 205.448 66.2864 206.857 67.8774C208.265 69.4684 207.413 71.9875 207.721 73.8034L222.38 73.8552C222.065 74.4313 221.6 74.9165 221.031 75.2618C218.664 77.1237 219.096 78.6571 215.858 78.6456C212.077 78.6456 208.289 78.3516 204.537 78.6975V78.7263ZM149.303 84.3755C146.527 84.2487 141.479 83.9605 138.846 84.3755C137.739 84.5427 137.189 85.4708 135.821 86.5545C134.779 87.3769 133.592 88.0078 132.318 88.4165C129.152 89.5002 126.051 88.8315 124.157 87.0618C123.106 86.0804 122.428 84.7807 122.235 83.3753C122.041 81.9699 122.343 80.5422 123.092 79.3258L151.434 79.2393C152.286 78.121 153.706 73.642 154.091 71.953C156.34 62.1532 152.907 55.7661 140.952 55.8872C130.075 55.9967 120.091 61.8247 115.291 70.875C112.865 75.4405 110.936 80.5652 111.09 86.6986C111.397 98.6773 128.879 98.7465 138.443 93.9908C140.65 92.883 142.718 91.5288 144.604 89.9556C145.924 88.8719 148.616 86.3989 149.303 84.3928V84.3755ZM239.851 69.3013C241.869 66.6899 245.863 67.0646 246.526 67.6123C245.857 68.3213 244.455 68.5634 243.324 68.8113C242.549 68.9784 240.472 69.5261 239.851 69.3013ZM216.089 81.8103L206.567 81.7469C206.194 81.8391 205.519 83.3956 204.578 84.3064C202.211 86.6122 198.826 89.0967 194.932 88.4972C188.653 87.5403 190.499 80.7035 192.304 76.2418C198.299 61.4154 208.763 63.2773 210.343 66.8571C210.852 68.01 210.615 69.8719 211.071 70.7193L222.025 70.8462C222.812 67.5661 223.309 66.4248 221.96 63.0352C221.153 60.8671 219.576 59.0516 217.515 57.9163C209.603 53.541 196.997 56.1869 190.464 62.7643L188.096 65.1854C178.692 75.5615 171.526 97.5071 193.014 97.0921C198.311 96.9883 204.288 94.9362 207.751 92.5381C209.645 91.2556 211.329 89.7007 212.745 87.9265C214.12 86.0236 215.245 83.9613 216.095 81.7873L216.089 81.8103ZM225.327 69.4973H235.643C236.334 67.9616 237.474 66.6583 238.921 65.7503C242.082 63.652 247.39 63.3119 249.669 65.6408C251.29 67.2952 249.55 69.7105 248.42 70.4253C243.561 73.4863 231.553 72.5928 225.481 76.0112C221.546 78.2305 213.095 87.1425 218.38 93.766C221.303 97.4264 230.66 97.0287 235.773 95.3454C237.318 94.8324 239.691 93.5065 241.064 93.2702L240.2 95.9853L251.444 95.9104C252.48 93.9965 256.995 81.0263 258.286 77.6771C260.363 72.2815 264.695 63.1678 259.357 58.8329C254.741 55.0859 244.467 55.2646 238.306 57.3802C235.34 58.3582 232.601 59.8958 230.245 61.9054C229.31 62.7297 225.475 67.5661 225.321 69.48L225.327 69.4973ZM172.638 60.8793L172.739 60.9427L172.899 60.9946C173.088 60.666 172.94 60.8389 173.242 60.568C173.359 60.4749 173.482 60.3883 173.609 60.3086C175.369 58.7698 177.43 57.5933 179.669 56.8499C182.452 55.99 185.389 55.7053 188.292 56.014C188.292 56.8671 184.741 65.3929 184.232 66.1596C179.497 66.3959 176.296 66.1596 172.987 68.5576C170.295 70.5176 168.975 72.7254 167.519 76.5761C166.335 79.7408 161.506 93.1607 160.115 95.945L148.871 95.8988C148.983 94.9189 155.624 77.4523 156.079 76.2994C156.452 75.3771 163.11 57.0977 163.773 56.9075L173.946 56.9709L172.638 60.8793ZM71.3492 61.4846H71.0119C70.0413 64.2573 68.7749 67.203 67.7096 70.0506C65.6382 75.5904 63.3716 81.9544 61.1996 87.3443L57.9447 95.8988C56.2284 95.9392 48.2744 96.0545 47.1322 95.7663C47.724 93.6853 48.7183 91.218 49.4995 89.1774C50.3458 87.0157 51.1743 84.7733 51.991 82.5712L66.4904 44.7097C66.6562 44.2947 66.8988 43.309 67.3012 43.1937H84.1798C84.1798 46.2662 83.6235 49.7941 83.2861 52.8493C82.7357 57.8759 80.2856 77.7405 80.3271 81.1877C81.1201 80.6113 83.6649 76.3916 84.3632 75.2906C90.6305 65.3871 97.4719 54.9591 103.893 45.1248C105.438 42.7613 105.041 43.1591 106.953 43.1649H121.89C121.967 43.9719 113.155 66.9666 112.102 69.5318C111.208 71.7166 110.22 73.6304 109.397 75.919L102.124 95.8758L90.8791 95.8066L103.834 61.3289C102.999 61.8016 97.7027 70.1429 96.7321 71.6301C94.4241 75.1407 92.1219 78.4726 89.8079 82.0063C87.4939 85.54 85.0734 88.8834 82.8186 92.4401C82.2268 93.397 81.706 94.1695 81.0787 95.0514C80.6762 95.6279 80.6526 95.9046 79.7352 95.9161L68.9465 95.8873C68.5618 94.3194 69.3134 89.114 69.4554 87.2001C69.7158 83.5627 71.4854 63.2082 71.3315 61.4673L71.3492 61.4846ZM42.4391 98.9483C47.4932 99.1097 54.2458 98.9886 59.4775 99.0002C60.8505 99.0002 61.0398 97.5071 61.6317 95.7086C62.3892 93.4028 65.3897 85.2633 66.2656 84.0815L65.2062 98.9656C68.473 99.15 78.2261 98.9944 82.1617 98.9944C82.6825 98.9944 83.7951 96.9941 84.233 96.3254C85.3101 94.671 89.3404 88.1916 90.2577 87.8112C90.021 89.3157 88.8314 91.8464 88.2633 93.299C87.7306 94.6768 86.3754 97.5994 86.3162 98.9944C91.6425 99.1212 98.9396 98.9944 104.426 98.9944C105.059 98.0663 105.757 95.9623 106.237 94.671C106.734 93.1233 107.327 91.6064 108.012 90.1285C108.503 90.3822 108.817 91.5351 109.196 92.296C110.387 94.4402 112.149 96.2323 114.297 97.4841C117.31 99.2711 121.369 100.113 125.542 100.107C129.55 100.112 133.523 99.3726 137.248 97.928C141.822 96.164 145.699 93.2068 146.125 93.0569C145.865 94.988 144.202 97.1324 144.166 98.9713C147.22 99.1673 157.6 99.0002 161.228 99.0059C163.246 99.0059 162.506 99.3403 164.187 94.9707L169.087 81.8449C171.496 75.5039 172.78 69.578 180.758 69.2955C180.166 71.5148 176.29 75.9362 175.651 84.3409C174.313 101.894 194.352 103.047 207.277 96.5272C210.769 94.7632 212.337 93.0684 213.556 92.4632C214.627 93.3221 215.415 99.7899 227.541 99.7611C233.4 99.7611 234.145 98.6831 237.4 98.2046C237.655 98.8676 237.809 99.0117 238.667 99.0059L253.794 98.9771C254.717 97.8761 258.126 87.8631 258.942 85.7187C260.173 82.4617 262.937 75.2042 263.831 72.1317C265.293 67.1165 265.873 60.9542 262.647 57.3514C257.013 51.0738 241.283 52.4342 234.66 55.3857C227.866 58.412 227.274 60.9946 225.404 62.3031C224.653 61.6575 224.138 58.1296 219.397 55.2877C212.846 51.3563 201.968 52.2382 195.305 55.5528C194.257 56.0774 192.831 57.1093 191.671 57.4033L192.926 53.5756C190.274 53.3277 187.919 52.6879 185.167 52.8723C181.403 53.126 180.432 54.0252 178.32 54.5325C178.03 54.0195 178.32 53.8177 177.609 53.8177H161.157L157.79 62.2916C157.038 61.7151 156.973 60.1529 155.523 58.1411C150.35 50.9758 135.993 51.8808 128.507 55.0744C126.027 56.1692 123.663 57.4955 121.446 59.0346C120.582 59.6572 120.032 60.1875 119.251 60.7121C119.535 59.3517 120.612 56.9652 121.144 55.524C121.772 53.8293 122.423 52.1057 123.038 50.4224C123.577 48.9409 126.784 40.8821 126.784 40.1327L105.568 40.0578C103.041 40.0578 103.639 39.5217 100.336 44.5599C98.6496 47.1424 96.9274 49.6903 95.294 52.3017C92.8262 56.2446 90.1689 60.0838 87.8135 63.9172C87.0585 65.2445 86.1873 66.5059 85.2095 67.6872C85.0083 66.2345 85.5765 62.4069 85.754 60.7697L87.3105 47.1539C87.658 44.7988 87.8556 42.4251 87.9023 40.0462C80.404 40.0462 72.0062 39.9482 64.5966 40.0462L61.7737 47.275C60.8445 49.7652 59.9983 52.244 59.0336 54.7689C57.6192 58.5908 42.6167 97.0344 42.4391 98.9483Z" fill="#252C7B"/>
<path fill-rule="evenodd" clip-rule="evenodd" d="M446.145 119.061C445.423 119.637 444.594 120.565 443.837 121.251L440.351 124.387C438.931 125.488 435.25 128.394 433.983 129.166C433.007 129.742 432.143 130.232 431.237 130.797C420.685 137.432 409.097 140.142 396.486 140.753C384.786 141.329 372.813 141.26 361.107 141.26L109.42 141.341C103.467 141.341 97.5368 141.341 91.5832 141.45C85.742 141.548 79.6818 141.571 73.8939 141.174C60.2835 140.21 47.2109 135.603 36.1183 127.861C25.0257 120.119 16.3441 109.543 11.0314 97.2996C4.88444 83.1044 3.69305 67.3358 7.64032 52.4169C8.26172 50.0823 9.04292 47.9321 9.81819 45.782C10.5935 43.6318 11.7475 41.522 12.4044 39.5332C11.6647 39.7292 11.0728 41.153 10.481 42.1157L7.13728 48.0301C5.49743 51.1632 4.11228 54.4167 2.99458 57.7607C1.41444 62.4645 2.14828 61.156 1.29607 65.2546C0.751782 67.8699 0.370353 70.5149 0.153872 73.175C0.0295908 74.6392 0 76.0573 0 77.5446V77.6195L0.165708 82.0467C0.31958 83.3898 0.443861 84.8136 0.597732 86.2144C1.45024 92.3824 3.12128 98.4164 5.56897 104.165C6.7526 106.759 8.76476 111.008 10.3035 113.319C10.9367 114.276 11.4871 115.199 12.1263 116.127C14.0674 118.957 15.1149 120.162 17.1212 122.658L18.7901 124.503C19.0327 124.785 19.0268 124.843 19.2991 125.125L25.2764 130.832C28.6667 133.714 32.3082 136.302 36.1598 138.568C44.6416 143.563 54.0872 146.807 63.91 148.097C67.0052 148.518 72.1954 148.714 77.8235 148.794H110.131C113.303 148.794 116.143 148.656 119.404 148.656H128.844C132.087 148.656 134.857 148.518 138.123 148.518C150.747 148.518 162.92 148.241 175.502 148.241C178.722 148.241 181.421 148.103 184.634 148.103C187.848 148.103 190.913 148.103 194.056 148.103C195.003 148.103 195.287 147.958 196.186 147.958H212.757C214.42 147.958 215.621 147.814 217.178 147.82C267.275 147.93 317.455 147.82 367.564 147.82L381.258 147.399C392.615 146.823 403.079 145.733 413.56 142.309C415.875 141.593 418.144 140.74 420.354 139.755C420.868 139.513 421.413 139.312 421.922 139.064L426.526 136.654C429.065 135.271 433.906 132.043 436.096 129.99L439.771 126.618C440.185 126.186 440.458 125.88 440.878 125.465C441.091 125.258 441.251 125.125 441.47 124.889C441.689 124.652 441.748 124.491 442.061 124.191L445.198 120.433C445.568 120.013 445.885 119.553 446.145 119.061Z" fill="#A4CD39"/>
<path fill-rule="evenodd" clip-rule="evenodd" d="M387.283 47.6727L387.55 47.3095L387.721 47.6784C387.721 49.0216 388.13 49.9843 387.922 51.6329C387.271 56.9421 382.365 60.7582 377.151 61.5537C375.015 61.8823 371.576 61.6229 370.109 60.5737C376.24 59.6226 381.833 57.8759 385.094 52.9011C385.721 51.95 387.26 49.0677 387.283 47.6727ZM371.955 36.0052L369.955 36.5125C369.168 36.5759 366.073 38.288 365.185 38.9221C356.308 45.2631 357.817 57.5531 366.505 62.4991C369.742 64.3379 374.459 65.4332 378.661 64.4244C383.01 63.3753 385.827 61.5133 387.987 59.0519C389.3 57.5353 390.259 55.759 390.797 53.8461C391.336 51.9331 391.441 49.929 391.106 47.9724C389.923 41.545 385.981 38.2938 380.531 36.4434C378.086 35.6248 376.554 35.6767 373.79 35.6421L371.955 36.0052Z" fill="#F58020"/>
<path fill-rule="evenodd" clip-rule="evenodd" d="M387.721 47.6782H387.283C387.283 49.0732 385.721 51.9555 385.093 52.9067C381.832 57.8815 376.216 59.6281 370.108 60.5793C371.576 61.6284 375.015 61.8878 377.151 61.5592C382.365 60.7637 387.271 56.9476 387.922 51.6385C388.129 49.9552 387.715 49.0329 387.721 47.6782Z" fill="white"/>
<path fill-rule="evenodd" clip-rule="evenodd" d="M369.481 20.9078C369.191 21.1903 369.227 20.4524 369.257 21.4843C369.618 21.6341 369.304 21.2421 369.653 21.9108C369.757 22.144 369.848 22.3826 369.925 22.6256C370.991 25.4387 372.961 30.5115 372.121 33.4399L372.08 34.9502C371.269 34.5747 370.479 34.1591 369.712 33.7051C368.961 33.3073 368.108 32.9499 367.345 32.5522C367.452 33.2497 368.771 33.9875 369.476 34.3622C370.482 34.8868 371.784 35.348 371.991 36.0339L373.825 35.6823C373.89 35.2442 374.021 34.7715 374.068 34.3853C374.133 33.8492 374.068 33.4399 374.157 32.875L376.98 30.6672C377.919 29.9483 378.762 29.1175 379.489 28.1942C378.554 28.6635 377.654 29.1971 376.796 29.791C375.919 30.4049 374.988 30.9431 374.015 31.3993C373.927 30.6484 373.969 29.8884 374.139 29.1511C373.873 28.8167 373.896 27.3583 373.843 26.6435C373.737 25.3465 372.979 20.2045 372.411 19.5186L371.896 19.6684L372.452 19.8241C371.983 20.5414 371.244 21.0506 370.393 21.2421C369.316 21.3978 369.541 21.0577 369.481 20.9078Z" fill="#A4CD39"/>
<path fill-rule="evenodd" clip-rule="evenodd" d="M204.537 75.6423C204.819 74.8619 205.051 74.0648 205.229 73.2558C205.419 71.9357 205.152 71.8896 204.637 71.071C202.655 70.9615 200.749 73.9533 199.873 75.4002C199.281 76.3802 196.914 80.4096 197.536 81.845C200.128 82.2139 201.891 78.7494 202.755 77.1007C203.454 75.7864 203.128 75.9824 204.537 75.6423Z" fill="#252C7A"/>
<path fill-rule="evenodd" clip-rule="evenodd" d="M381.785 91.8577L382.655 92.0191L382.791 90.9296C382.631 88.3414 384.146 85.0037 384.472 82.7959C383.868 84.1967 381.738 90.2956 381.785 91.8577Z" fill="#FBFDFF"/>
<path fill-rule="evenodd" clip-rule="evenodd" d="M393.296 65.8369V66.0329C393.618 65.8542 393.397 66.1193 393.695 65.7331C393.778 65.6094 393.838 65.4729 393.874 65.3296C393.439 65.5371 393.54 65.3815 393.296 65.8369Z" fill="#65C296"/>
<path fill-rule="evenodd" clip-rule="evenodd" d="M381.785 91.8582C381.998 92.0253 381.572 91.9734 382.223 92.0887C382.672 92.1752 382.4 92.1176 382.761 92.0599L382.791 90.907L382.655 91.9965L381.785 91.8582Z" fill="#78C8A5"/>
<path fill-rule="evenodd" clip-rule="evenodd" d="M172.904 60.9948C173.043 60.9341 173.175 60.8587 173.297 60.77C173.678 60.4414 173.476 60.6086 173.618 60.3088C173.49 60.3885 173.367 60.4751 173.249 60.5682C172.946 60.8392 173.095 60.6662 172.904 60.9948Z" fill="#DBE9B2"/>
<path fill-rule="evenodd" clip-rule="evenodd" d="M387.277 47.6727L387.724 47.6843L387.551 47.3096L387.277 47.6727Z" fill="#F7B787"/>
<path fill-rule="evenodd" clip-rule="evenodd" d="M71.012 61.5076H71.3512C71.2977 60.9312 71.3512 61.375 71.1786 61.2482L71.012 61.5076Z" fill="#604F84"/>
<path fill-rule="evenodd" clip-rule="evenodd" d="M172.746 60.9427L172.645 60.8793C172.431 61.0868 172.508 60.5449 172.455 61.2713L172.746 60.9427Z" fill="#846F82"/>
<path fill-rule="evenodd" clip-rule="evenodd" d="M317.06 39.5737L316.721 39.5391L316.81 39.8561L317.06 39.5737Z" fill="#95D2B7"/>
</svg>
